<svg width="8" height="8" viewBox="0 0 8 8" fill="none" xmlns="http://www.w3.org/2000/svg">
<path fill-rule="evenodd" clip-rule="evenodd" d="M0.219783 6.43955C-0.07311 6.73244 -0.07311 7.20732 0.219783 7.50021C0.512676 7.7931 0.98755 7.7931 1.28044 7.50021L3.71973 5.06093L6.23008 7.57128C6.52297 7.86417 6.99784 7.86417 7.29074 7.57128C7.58363 7.27838 7.58363 6.80351 7.29074 6.51062L4.78039 4.00027L7.29085 1.4898C7.58374 1.19691 7.58374 0.722036 7.29085 0.429143C6.99796 0.136249 6.52308 0.136249 6.23019 0.429143L3.71973 2.93961L1.28033 0.50021C0.987437 0.207317 0.512563 0.207317 0.21967 0.50021C-0.0732233 0.793104 -0.0732233 1.26798 0.21967 1.56087L2.65907 4.00027L0.219783 6.43955Z"/>
</svg>
