<svg width="14" height="16" viewBox="0 0 14 16" fill="none" xmlns="http://www.w3.org/2000/svg">
<path d="M12.3636 14.5455H4.36364V4.36364H12.3636V14.5455ZM12.3636 2.90909H4.36364C3.97787 2.90909 3.6079 3.06234 3.33512 3.33512C3.06234 3.6079 2.90909 3.97787 2.90909 4.36364V14.5455C2.90909 14.9312 3.06234 15.3012 3.33512 15.574C3.6079 15.8468 3.97787 16 4.36364 16H12.3636C12.7494 16 13.1194 15.8468 13.3922 15.574C13.6649 15.3012 13.8182 14.9312 13.8182 14.5455V4.36364C13.8182 3.97787 13.6649 3.6079 13.3922 3.33512C13.1194 3.06234 12.7494 2.90909 12.3636 2.90909V2.90909ZM10.1818 0H1.45455C1.06878 0 0.698807 0.153246 0.426026 0.426027C0.153246 0.698807 0 1.06878 0 1.45455V11.6364H1.45455V1.45455H10.1818V0Z"/>
</svg>
