<svg width="30" height="30" viewBox="0 0 30 30" xmlns="http://www.w3.org/2000/svg">
<circle cx="15" cy="15" r="14" fill="#233767" stroke="white" stroke-width="2"/>
<path fill-rule="evenodd" clip-rule="evenodd" d="M5.78671 5.82856C3.44646 8.17943 2 11.4208 2 15C2 22.1797 7.8203 28 15 28C22.1797 28 28 22.1797 28 15C28 7.8203 22.1797 2 15 2C11.4208 2 8.17936 3.44649 5.82849 5.78678C7.03129 4.58943 8.45697 3.63911 10.0251 2.98957C11.6023 2.33625 13.2928 2 15 2C22.15 2 28 7.811 28 15C28 18.4478 26.6304 21.7544 24.1924 24.1924C21.7544 26.6304 18.4478 28 15 28C13.2928 28 11.6023 27.6637 10.0251 27.0104C8.44788 26.3571 7.01477 25.3995 5.80761 24.1924C3.36964 21.7544 2 18.4478 2 15C2 11.5621 3.36181 8.26451 5.78671 5.82856ZM7.2 20.2C8.877 22.696 11.75 24.36 15 24.36C16.5415 24.3592 18.0592 23.9794 19.4194 23.2539C20.7796 22.5285 21.9406 21.4797 22.8 20.2C22.761 17.6 17.6 16.17 15 16.17C12.4 16.17 7.239 17.6 7.2 20.2ZM17.7577 7.04228C17.0263 6.31089 16.0343 5.9 15 5.9C13.9657 5.9 12.9737 6.31089 12.2423 7.04228C11.5109 7.77368 11.1 8.76566 11.1 9.8C11.1 10.8343 11.5109 11.8263 12.2423 12.5577C12.9737 13.2891 13.9657 13.7 15 13.7C16.0343 13.7 17.0263 13.2891 17.7577 12.5577C18.4891 11.8263 18.9 10.8343 18.9 9.8C18.9 8.76566 18.4891 7.77368 17.7577 7.04228Z" fill="white"/>
</svg>
