<svg width="345" height="150" viewBox="0 0 345 150" fill="none" xmlns="http://www.w3.org/2000/svg"><rect width="345" height="150" fill="white"/><rect width="345" height="150" rx="5" fill="#233767"/><g opacity="0.5"><path d="M163.493 80.7847C159.102 80.301 155.149 83.469 154.666 87.8608C154.182 92.2525 157.35 96.2048 161.742 96.6885L163.493 80.7847ZM181.824 70.163C186.241 70.0563 189.735 66.3891 189.629 61.9722C189.522 57.5552 185.855 54.061 181.438 54.1676L181.824 70.163ZM161.742 96.6885C169.322 97.5235 175.725 96.2361 180.573 93.0243C185.419 89.8138 188.158 85.0046 188.676 80.1704C189.137 75.8577 187.751 69.5286 181.801 66.7344C175.466 63.7591 169.398 67.236 165.619 71.0158L176.932 82.3295C179.041 80.2205 177.955 82.6048 175 81.2168C173.758 80.6334 173.162 79.712 172.94 79.1949C172.829 78.9351 172.79 78.739 172.775 78.6308C172.768 78.5741 172.766 78.5327 172.765 78.5071C172.765 78.4813 172.767 78.4682 172.767 78.4674C172.767 78.465 172.693 79.0519 171.736 79.6859C170.781 80.3186 168.391 81.3242 163.493 80.7847L161.742 96.6885ZM165.619 71.0158C165.676 70.9583 166.339 70.3406 167.655 70.1771C169.035 70.0058 170.256 70.4474 171.059 71.0345C171.786 71.5667 172.075 72.1254 172.175 72.3726C172.286 72.6473 172.285 72.8205 172.281 72.8829C172.261 73.1619 172.119 72.825 173.003 72.1917C174.009 71.4706 176.53 70.2908 181.824 70.163L181.438 54.1676C174.085 54.3452 168.099 56.0205 163.681 59.1879C159.14 62.4432 156.657 67.0284 156.321 71.7468C156.013 76.0739 157.581 80.9999 161.614 83.9494C163.755 85.5155 166.557 86.4364 169.627 86.0551C172.634 85.6817 175.097 84.1648 176.932 82.3295L165.619 71.0158Z" fill="white"/><path d="M163.274 82.7727C159.981 82.4099 157.016 84.7859 156.654 88.0797C156.291 91.3735 158.667 94.3378 161.961 94.7006L163.274 82.7727ZM181.776 68.1635C185.089 68.0835 187.709 65.3332 187.629 62.0204C187.549 58.7077 184.799 56.087 181.486 56.167L181.776 68.1635ZM161.961 94.7006C169.205 95.4986 175.107 94.2464 179.468 91.357C183.828 88.4685 186.234 84.1871 186.687 79.9576C187.098 76.1191 185.836 70.8388 180.951 68.5447C175.777 66.1148 170.604 68.8591 167.033 72.43L175.518 80.9153C177.836 78.5975 177.644 80.2491 175.85 79.4065C174.345 78.6998 174.862 77.687 174.755 78.6803C174.691 79.2825 174.284 80.3972 172.841 81.3532C171.399 82.3083 168.507 83.3491 163.274 82.7727L161.961 94.7006ZM167.033 72.43C166.854 72.6091 167.125 72.2582 167.902 72.1619C168.725 72.0596 169.443 72.3309 169.878 72.6488C170.56 73.1478 170.24 73.3801 170.286 72.7409C170.31 72.3952 170.497 71.5273 171.837 70.5662C173.27 69.5393 176.224 68.2976 181.776 68.1635L181.486 56.167C174.39 56.3384 168.838 57.9518 164.846 60.8134C160.762 63.7409 158.607 67.7951 158.316 71.8888C158.045 75.6891 159.435 79.8782 162.794 82.3351C164.568 83.632 166.867 84.3825 169.381 84.0704C171.847 83.764 173.919 82.514 175.518 80.9153L167.033 72.43Z" fill="#233767"/><circle cx="181.296" cy="62.165" r="5.165" fill="#27AE8E"/><circle cx="163.167" cy="88.7285" r="5.16669" fill="#27AE8E"/></g></svg>