<svg width="10" height="11" viewBox="0 0 10 11" fill="none" xmlns="http://www.w3.org/2000/svg">
<path d="M7.5 7.07182C7.12 7.07182 6.78 7.2225 6.52 7.45856L2.955 5.37418C2.98 5.25866 3 5.14314 3 5.0226C3 4.90206 2.98 4.78654 2.955 4.67102L6.48 2.60673C6.75 2.85786 7.105 3.01356 7.5 3.01356C7.89782 3.01356 8.27936 2.85481 8.56066 2.57224C8.84196 2.28966 9 1.9064 9 1.50678C9 1.10716 8.84196 0.723902 8.56066 0.441326C8.27936 0.15875 7.89782 0 7.5 0C7.10218 0 6.72064 0.15875 6.43934 0.441326C6.15804 0.723902 6 1.10716 6 1.50678C6 1.62732 6.02 1.74284 6.045 1.85836L2.52 3.92265C2.25 3.67152 1.895 3.51582 1.5 3.51582C1.10218 3.51582 0.720644 3.67457 0.43934 3.95715C0.158035 4.23972 0 4.62298 0 5.0226C0 5.42222 0.158035 5.80548 0.43934 6.08806C0.720644 6.37063 1.10218 6.52938 1.5 6.52938C1.895 6.52938 2.25 6.37368 2.52 6.12255L6.08 8.20693C6.055 8.31241 6.04 8.4229 6.04 8.53842C6.04 9.34706 6.695 10 7.5 10C8.305 10 8.96 9.34706 8.96 8.53842C8.96 8.14946 8.80618 7.77642 8.53238 7.50138C8.25857 7.22634 7.88722 7.07182 7.5 7.07182V7.07182Z" fill="#233767"/>
</svg>
