<svg width="24" height="23" viewBox="0 0 24 23" fill="none" xmlns="http://www.w3.org/2000/svg">
<path d="M18.8151 8.19008C19.161 8.28275 19.5294 8.23423 19.8395 8.05521C20.1496 7.87619 20.3758 7.58133 20.4685 7.23548C20.5612 6.88964 20.5127 6.52115 20.3336 6.21108C20.1546 5.901 19.8598 5.67475 19.5139 5.58208C19.1681 5.48941 18.7996 5.53792 18.4895 5.71694C18.1794 5.89596 17.9532 6.19083 17.8605 6.53667C17.7678 6.88251 17.8164 7.251 17.9954 7.56108C18.1744 7.87115 18.4693 8.09741 18.8151 8.19008ZM3.91716 8.46559L13.8376 2.73803C14.2344 2.50893 14.7203 2.43414 15.1985 2.56226L21.2838 4.19282C22.2488 4.45138 22.8151 5.4324 22.5566 6.39736L20.926 12.4827C20.7979 12.9608 20.4902 13.3442 20.0847 13.571L10.1729 19.3009C9.76743 19.5277 9.27918 19.6112 8.80105 19.483C8.32292 19.3549 7.94183 19.0385 7.71272 18.6417L3.25795 10.9258C3.02016 10.5267 2.94537 10.0407 3.07349 9.56261C3.20393 9.07579 3.52035 8.6947 3.91716 8.46559Z" fill="#233767"/>
</svg>
